<svg width="31" height="31" viewBox="0 0 31 31" fill="none" xmlns="http://www.w3.org/2000/svg">
<path d="M15.6917 30.8239C23.9678 30.8239 30.6769 24.121 30.6769 15.8526C30.6769 7.5842 23.9678 0.881332 15.6917 0.881332C7.41564 0.881332 0.706543 7.5842 0.706543 15.8526C0.706543 24.121 7.41564 30.8239 15.6917 30.8239Z" fill="url(#paint0_linear_4_980)"/>
<path d="M27.4846 15.8526C27.4846 17.5024 27.1424 19.0735 26.5257 20.5011C24.7182 24.6926 20.5417 27.6345 15.6902 27.6345C9.18727 27.6345 3.89569 22.3479 3.89569 15.851C3.89569 14.6046 4.08969 13.4023 4.45245 12.2741C5.97289 7.52 10.4349 4.06909 15.6902 4.06909C22.1931 4.06909 27.4846 9.35576 27.4846 15.8526Z" fill="url(#paint1_linear_4_980)"/>
<path d="M27.084 16.9225C27.084 18.169 26.89 19.3713 26.5273 20.4995C24.7198 24.691 20.5433 27.633 15.6918 27.633C9.18886 27.633 3.89728 22.3463 3.89728 15.8494C3.89728 14.603 4.09128 13.4007 4.45404 12.2725C6.26154 8.08096 10.438 5.13902 15.2896 5.13902C21.7925 5.13902 27.084 10.4257 27.084 16.9225Z" fill="url(#paint2_linear_4_980)"/>
<path d="M23.5274 14.737C23.4691 15.5359 23.3713 16.4924 23.2057 17.545C22.8855 19.5824 22.5968 20.5373 22.0622 22.1241C21.9455 22.4676 21.6032 22.6646 21.1978 22.7261C19.7247 22.9451 17.6996 23.0381 15.6649 23.0302C13.6303 23.0381 11.6068 22.9435 10.132 22.7261C9.7267 22.6662 9.38445 22.4676 9.26773 22.1241C9.04534 21.4639 8.86554 20.9124 8.70939 20.3483C8.48858 19.5556 8.31351 18.7347 8.12582 17.5466C7.81353 15.5642 7.74256 13.9192 7.72836 13.0367C7.72521 12.8019 7.98545 12.6633 8.18102 12.7909C9.16206 13.4354 11.2235 15.6367 12.1052 16.5979C12.3055 16.817 12.6635 16.7697 12.7991 16.505C13.3717 15.3925 14.6855 12.887 15.4142 11.8407C15.5482 11.6485 15.7706 11.6438 15.9094 11.8329C16.6444 12.8256 17.9724 15.3941 18.5418 16.516C18.6743 16.7776 19.026 16.8312 19.2295 16.62C20.108 15.7108 22.1489 13.6198 23.1315 12.7988C23.3192 12.6428 23.6047 12.7783 23.6015 13.0226C23.5952 13.437 23.5763 14.0247 23.5258 14.7386L23.5274 14.737Z" fill="url(#paint3_linear_4_980)"/>
<path d="M23.7419 12.0519C23.7356 12.4663 23.7167 13.0525 23.6662 13.7663C23.6189 14.4281 23.5432 15.1987 23.4249 16.0417C23.4012 16.2166 23.3744 16.3947 23.346 16.5759C23.0258 18.6133 22.7372 19.5682 22.2025 21.155C22.0858 21.4985 21.7436 21.6955 21.3382 21.757C19.8651 21.976 17.8399 22.069 15.8069 22.0627C13.7707 22.069 11.7487 21.976 10.274 21.757C9.87022 21.6955 9.52796 21.4985 9.41125 21.155C9.18728 20.4932 9.00906 19.9433 8.85134 19.3776C8.70781 18.8607 8.58163 18.3297 8.46176 17.6931C8.3971 17.3559 8.33243 16.9872 8.26776 16.5759C7.95547 14.5936 7.88292 12.9485 7.8703 12.0645C7.86557 11.8297 8.12739 11.6895 8.32296 11.8187C9.304 12.4632 11.3639 14.6645 12.2471 15.6257C12.4474 15.8447 12.8054 15.7975 12.9411 15.5343C13.5136 14.4218 14.8274 11.9148 15.5561 10.8701C15.6886 10.6794 15.9126 10.6731 16.0514 10.8622C16.7863 11.8549 18.1144 14.4234 18.6837 15.5453C18.8162 15.8069 19.168 15.8605 19.3714 15.6493C20.2499 14.7401 22.2909 12.6491 23.275 11.8297C23.4627 11.6737 23.7466 11.8092 23.7435 12.055L23.7419 12.0519Z" fill="url(#paint4_linear_4_980)"/>
<path d="M23.4248 16.0417C23.4012 16.2166 23.3744 16.3947 23.346 16.5759C23.0258 18.6133 22.7372 19.5682 22.2025 21.155C22.0858 21.4986 21.7435 21.6955 21.3382 21.757C19.8651 21.976 17.8399 22.069 15.8069 22.0627C13.7707 22.069 11.7487 21.976 10.274 21.757C9.87019 21.6955 9.52793 21.4986 9.41122 21.155C9.18725 20.4932 9.00903 19.9433 8.85131 19.3776C8.70778 18.8607 8.5816 18.3297 8.46173 17.6931C12.255 18.169 16.1349 17.9752 19.8572 17.1038C21.0653 16.8201 22.2593 16.464 23.4264 16.0417H23.4248Z" fill="url(#paint5_linear_4_980)"/>
<path opacity="0.3" d="M24.5068 4.49454C25.5777 5.37381 26.1187 6.48315 25.7165 6.97163C25.3144 7.46012 24.1204 7.14496 23.0495 6.26569C21.9785 5.38642 21.4375 4.27709 21.8397 3.7886C22.2419 3.29854 23.4359 3.61527 24.5068 4.49454Z" fill="white"/>
<g opacity="0.6">
<path opacity="0.3" d="M7.04538 25.0456C7.73936 25.616 8.09108 26.3345 7.83084 26.6528C7.5706 26.9696 6.79618 26.7647 6.10062 26.1959C5.40665 25.6254 5.05492 24.9069 5.31517 24.5886C5.57541 24.2703 6.34982 24.4767 7.04538 25.0456Z" fill="white"/>
</g>
<path opacity="0.3" d="M17.2012 14.4391C17.4787 15.0411 17.4787 15.632 17.2027 15.7581C16.9267 15.8841 16.4788 15.4996 16.2028 14.8977C15.9252 14.2958 15.9252 13.7048 16.2012 13.5788C16.4772 13.4527 16.9251 13.8372 17.2012 14.4391Z" fill="white"/>
<defs>
<linearGradient id="paint0_linear_4_980" x1="21.1205" y1="-1.9503" x2="10.7538" y2="32.1025" gradientUnits="userSpaceOnUse">
<stop stop-color="#FFEF00"/>
<stop offset="1" stop-color="#FFB700"/>
</linearGradient>
<linearGradient id="paint1_linear_4_980" x1="21.9344" y1="-6.312" x2="10.3381" y2="34.9328" gradientUnits="userSpaceOnUse">
<stop stop-color="#FF8F00"/>
<stop offset="0.21" stop-color="#FF9D00"/>
<stop offset="0.6" stop-color="#FFC200"/>
<stop offset="1" stop-color="#FFEF00"/>
</linearGradient>
<linearGradient id="paint2_linear_4_980" x1="21.4313" y1="-4.70473" x2="10.3971" y2="34.5464" gradientUnits="userSpaceOnUse">
<stop stop-color="#FF8F00"/>
<stop offset="0.31" stop-color="#FFB800"/>
<stop offset="0.59" stop-color="#FFD600"/>
<stop offset="0.83" stop-color="#FFE800"/>
<stop offset="1" stop-color="#FFEF00"/>
</linearGradient>
<linearGradient id="paint3_linear_4_980" x1="17.3684" y1="8.77904" x2="12.9676" y2="24.6459" gradientUnits="userSpaceOnUse">
<stop stop-color="#FFEF00"/>
<stop offset="0.13" stop-color="#FFD900"/>
<stop offset="0.37" stop-color="#FFB900"/>
<stop offset="0.6" stop-color="#FFA100"/>
<stop offset="0.82" stop-color="#FF9300"/>
<stop offset="1" stop-color="#FF8F00"/>
</linearGradient>
<linearGradient id="paint4_linear_4_980" x1="19.2673" y1="2.96606" x2="10.6703" y2="30.7402" gradientUnits="userSpaceOnUse">
<stop offset="0.27" stop-color="#FFFCD1"/>
<stop offset="0.79" stop-color="#FFD770"/>
</linearGradient>
<linearGradient id="paint5_linear_4_980" x1="20.2625" y1="3.36001" x2="12.9157" y2="27.3926" gradientUnits="userSpaceOnUse">
<stop offset="0.17" stop-color="#FFFCD1"/>
<stop offset="0.79" stop-color="#FFD770"/>
</linearGradient>
</defs>
</svg>
